<svg xmlns="http://www.w3.org/2000/svg" viewBox="0 0 64 64" fill="none" role="img" aria-label="Resume Builder">
  <rect width="64" height="64" rx="14" fill="#4f46e5"/>
  <path d="M18 11h20l10 10v31a2 2 0 0 1-2 2H18a2 2 0 0 1-2-2V13a2 2 0 0 1 2-2Z" fill="#ffffff"/>
  <path d="M38 11v10h10" fill="#e0e7ff"/>
  <path d="M38 11v10h10" stroke="#c7d2fe" stroke-width="2" stroke-linejoin="round"/>
  <circle cx="30" cy="28" r="6" fill="#4f46e5"/>
  <path d="M20 43c2.2-4.6 6.1-7 10-7s7.8 2.4 10 7" stroke="#4f46e5" stroke-width="3" stroke-linecap="round"/>
  <rect x="20" y="50" width="24" height="3.5" rx="1.75" fill="#c7d2fe"/>
  <rect x="20" y="37" width="18" height="3" rx="1.5" fill="#e0e7ff"/>
</svg>
